<svg width="77" height="62" viewBox="0 0 77 62" fill="none" xmlns="http://www.w3.org/2000/svg">
<path d="M70.1265 52.7646C64.7951 58.5444 56.7277 61.4742 46.1523 61.4742L42.3523 61.4742L42.3523 50.762L45.4075 50.1502C50.6135 49.109 54.2349 47.0608 56.1729 44.055C57.1841 42.4358 57.7576 40.5817 57.8373 38.6742L46.1523 38.6742C45.1445 38.6742 44.1779 38.2739 43.4653 37.5612C42.7526 36.8486 42.3523 35.8821 42.3523 34.8742L42.3523 8.27425C42.3523 4.08285 45.7609 0.674253 49.9523 0.674253L72.7523 0.674255C73.7601 0.674255 74.7267 1.07461 75.4393 1.78725C76.1519 2.49989 76.5523 3.46643 76.5523 4.47425L76.5523 23.4743L76.5409 34.5664C76.5751 34.9882 77.2971 44.9822 70.1265 52.7646ZM8.15227 0.674249L30.9523 0.674251C31.9601 0.674251 32.9266 1.0746 33.6393 1.78724C34.3519 2.49988 34.7523 3.46643 34.7523 4.47425L34.7523 23.4742L34.7409 34.5664C34.7751 34.9882 35.4971 44.9822 28.3265 52.7646C22.9951 58.5444 14.9277 61.4742 4.35226 61.4742L0.552269 61.4742L0.55227 50.762L3.60747 50.1502C8.81347 49.109 12.4349 47.0608 14.3729 44.055C15.3841 42.4358 15.9576 40.5817 16.0373 38.6742L4.35227 38.6742C3.34445 38.6742 2.3779 38.2739 1.66526 37.5612C0.952624 36.8486 0.552271 35.8821 0.552271 34.8742L0.552274 8.27425C0.552274 4.08285 3.96087 0.674249 8.15227 0.674249Z" fill="white"/>
</svg>
