<svg width="15" height="15" viewBox="0 0 15 15" fill="none" xmlns="http://www.w3.org/2000/svg">
<path d="M14.0545 5.62172C14.0122 5.49572 13.9344 5.385 13.8306 5.30324C13.7268 5.22148 13.6016 5.17225 13.4704 5.16164L9.63413 4.85333L7.97405 1.13659C7.92118 1.01688 7.83518 0.915202 7.72645 0.843832C7.61771 0.772462 7.49087 0.734447 7.36124 0.734375C7.23161 0.734303 7.10473 0.772177 6.99591 0.843427C6.8871 0.914676 6.80099 1.01626 6.74799 1.13591L5.08791 4.85333L1.25161 5.16164C1.12272 5.17196 0.999494 5.21963 0.896683 5.29893C0.793873 5.37824 0.715829 5.48582 0.671888 5.60881C0.627946 5.7318 0.619968 5.86499 0.648909 5.99244C0.677849 6.1199 0.742482 6.23622 0.835075 6.3275L3.67007 9.12271L2.66743 13.5139C2.63698 13.6468 2.64674 13.7859 2.69543 13.9132C2.74413 14.0404 2.82951 14.1499 2.9405 14.2275C3.05149 14.305 3.18296 14.3471 3.31786 14.3481C3.45275 14.3491 3.58484 14.3091 3.69699 14.2333L7.36102 11.7627L11.0251 14.2333C11.1397 14.3103 11.2749 14.3499 11.4124 14.3469C11.55 14.3438 11.6833 14.2982 11.7945 14.2162C11.9056 14.1343 11.9893 14.0198 12.0343 13.8883C12.0792 13.7568 12.0833 13.6145 12.0459 13.4806L10.8151 9.12475L13.8675 6.34656C14.0673 6.16416 14.1407 5.87967 14.0545 5.62172Z" fill="#EEA404"/>
</svg>
