<svg width="14" height="15" viewBox="0 0 14 15" fill="none" xmlns="http://www.w3.org/2000/svg">
<path d="M13.8045 5.62172C13.7622 5.49572 13.6844 5.385 13.5806 5.30324C13.4768 5.22148 13.3516 5.17225 13.2204 5.16164L9.38413 4.85333L7.72405 1.13659C7.67118 1.01688 7.58518 0.915202 7.47645 0.843832C7.36771 0.772462 7.24087 0.734447 7.11124 0.734375C6.98161 0.734303 6.85473 0.772177 6.74591 0.843427C6.6371 0.914676 6.55099 1.01626 6.49799 1.13591L4.83791 4.85333L1.00161 5.16164C0.872716 5.17196 0.749494 5.21963 0.646683 5.29893C0.543873 5.37824 0.465829 5.48582 0.421888 5.60881C0.377946 5.7318 0.369968 5.86499 0.398909 5.99244C0.427849 6.1199 0.492482 6.23622 0.585075 6.3275L3.42007 9.12271L2.41743 13.5139C2.38698 13.6468 2.39674 13.7859 2.44543 13.9132C2.49413 14.0404 2.57951 14.1499 2.6905 14.2275C2.80149 14.305 2.93296 14.3471 3.06786 14.3481C3.20275 14.3491 3.33484 14.3091 3.44699 14.2333L7.11102 11.7627L10.7751 14.2333C10.8897 14.3103 11.0249 14.3499 11.1624 14.3469C11.3 14.3438 11.4333 14.2982 11.5445 14.2162C11.6556 14.1343 11.7393 14.0198 11.7843 13.8883C11.8292 13.7568 11.8333 13.6145 11.7959 13.4806L10.5651 9.12475L13.6175 6.34656C13.8173 6.16416 13.8907 5.87967 13.8045 5.62172Z" fill="#A7A5A0"/>
</svg>
