<svg width="12" height="11" viewBox="0 0 12 11" fill="none" xmlns="http://www.w3.org/2000/svg">
<path d="M11.6905 1.88412C11.277 2.06997 10.8364 2.19316 10.3771 2.25298C10.8497 1.96387 11.2103 1.50956 11.3798 0.961958C10.9393 1.23113 10.4529 1.42126 9.93448 1.52736C9.51616 1.07091 8.91995 0.788208 8.26953 0.788208C7.00762 0.788208 5.99169 1.83783 5.99169 3.12458C5.99169 3.30972 6.00698 3.48775 6.0445 3.65722C4.14955 3.56251 2.47278 2.63181 1.34637 1.21404C1.14972 1.56368 1.03437 1.96387 1.03437 2.39469C1.03437 3.20362 1.44087 3.9207 2.04682 4.33585C1.68061 4.32872 1.32135 4.21977 1.01699 4.04816C1.01699 4.05528 1.01699 4.06454 1.01699 4.0738C1.01699 5.20887 1.80708 6.15168 2.84316 6.36887C2.65762 6.42085 2.45541 6.44577 2.24555 6.44577C2.09963 6.44577 1.95231 6.43723 1.81403 6.40589C2.10936 7.3309 2.94739 8.01095 3.94386 8.03302C3.16837 8.65468 2.18371 9.02924 1.11775 9.02924C0.930828 9.02924 0.751547 9.02069 0.572266 8.99719C1.58194 9.66442 2.77853 10.0454 4.06894 10.0454C8.26328 10.0454 10.5564 6.48494 10.5564 3.39873C10.5564 3.29548 10.5529 3.19579 10.5481 3.09681C11.0004 2.76782 11.3805 2.35694 11.6905 1.88412Z" fill="#192023"/>
</svg>
