<svg width="7" height="14" viewBox="0 0 7 14" fill="none" xmlns="http://www.w3.org/2000/svg">
<path d="M0.796852 7.19087H2.13719V12.9219C2.13719 13.035 2.22546 13.1267 2.33441 13.1267H4.60701C4.71596 13.1267 4.80423 13.035 4.80423 12.9219V7.21788H6.34508C6.44526 7.21788 6.52957 7.13979 6.54101 7.03643L6.77503 4.92657C6.78145 4.86853 6.76375 4.81039 6.72635 4.76683C6.68893 4.72325 6.63536 4.6983 6.57914 4.6983H4.80432V3.37572C4.80432 2.97704 5.011 2.77486 5.41871 2.77486C5.47682 2.77486 6.57914 2.77486 6.57914 2.77486C6.6881 2.77486 6.77636 2.68314 6.77636 2.57003V0.633348C6.77636 0.520191 6.6881 0.428515 6.57914 0.428515H4.97988C4.96861 0.427945 4.94355 0.427002 4.90663 0.427002C4.62915 0.427002 3.66462 0.48358 2.90271 1.21156C2.05852 2.01829 2.17588 2.98418 2.20392 3.15166V4.69825H0.796828C0.687878 4.69825 0.599609 4.78992 0.599609 4.90308V6.98601C0.599633 7.09914 0.687901 7.19087 0.796852 7.19087Z" fill="#192023"/>
</svg>
